<svg width="78" height="32" viewBox="0 0 78 32" fill="none" xmlns="http://www.w3.org/2000/svg">
<path d="M77.0306 4.43386C78.0094 3.13573 77.833 1.3695 76.6351 0.489159C75.4373 -0.391183 73.6747 -0.0504983 72.6959 1.24776C71.717 2.54602 71.8936 4.31312 73.0906 5.19246C74.2873 6.07202 76.0519 5.73308 77.0306 4.43386Z" fill="#ED008C"/>
<path d="M69.2504 4.43387C70.2291 3.13553 70.0527 1.36945 68.8557 0.489105C67.659 -0.391237 65.8953 -0.0505314 64.9165 1.24862C63.9378 2.54779 64.1142 4.31291 65.3112 5.19247C66.5079 6.07181 68.2753 5.73309 69.2504 4.43387Z" fill="#ED008C"/>
<path d="M21.9558 8.56409C21.1768 4.22046 17.0322 0.215844 9.95876 0.450234C6.62305 0.562882 3.97175 2.09736 2.18703 4.27224C0.0969021 6.81606 -0.230599 10.0467 0.12451 12.0355C0.591831 14.652 2.22199 16.5717 2.39862 16.7462L2.54949 16.8996C2.54949 16.8996 3.35262 13.5101 4.14101 10.2495C4.61847 8.27692 5.61294 4.16237 10.5218 4.16237C14.5347 4.02793 16.6854 6.59808 17.0838 8.84038C17.4436 10.8536 16.5466 13.4346 14.9679 14.6275C13.6902 15.5886 12.1612 15.8085 10.7361 15.2399L11.6709 11.3542C12.0066 9.43451 13.0904 9.01202 13.299 8.92109C13.4032 8.87366 13.5105 8.83363 13.6201 8.80122L13.474 8.52862C13.2199 8.05697 12.8526 7.65385 12.4045 7.35472C11.9563 7.05559 11.4405 6.86936 10.9027 6.81258C10.3845 6.75145 9.85912 6.8165 9.37202 7.00142C8.88493 7.18655 8.45091 7.48634 8.10783 7.87445C7.47672 8.6126 7.03074 9.48716 6.80623 10.4274L3.13551 25.6331L8.18245 25.6277L9.7795 19.3644C13.1648 20.4219 16.311 19.9242 18.6697 17.9381C21.1574 15.8357 22.5317 11.7993 21.9558 8.56409Z" fill="#6122E8"/>
<path d="M35.4932 14.9825C35.4589 13.8578 35.1523 12.9534 34.5732 12.2696C34.003 11.5639 33.178 11.2112 32.0986 11.2112C31.0193 11.2112 30.106 11.5524 29.3589 12.235C28.6323 12.9184 28.1054 13.8334 27.7784 14.9805L35.4932 14.9825ZM31.0278 25.6338C29.7627 25.6486 28.5064 25.4241 27.3268 24.9724C26.2658 24.5558 25.3118 23.9117 24.5339 23.0863C23.7838 22.255 23.2246 21.2736 22.8944 20.2089C22.5454 19.0842 22.4458 17.8381 22.5955 16.4705L22.6029 16.4042C22.8528 13.9252 23.9885 11.615 25.8061 9.88745C26.6811 9.05162 27.7021 8.37939 28.8198 7.90339C29.9961 7.4139 31.2612 7.16676 32.5374 7.17655C34.0424 7.17655 35.3164 7.44109 36.3589 7.97061C37.3622 8.46532 38.2209 9.20521 38.8529 10.12C39.5118 11.0359 39.9502 12.0884 40.1345 13.1973C40.3701 14.3842 40.4188 15.6003 40.2789 16.8021C40.2556 17.0133 40.2215 17.2231 40.1767 17.4308C40.1527 17.6519 40.1164 17.8835 40.0672 18.1259H27.5026C27.6253 19.2724 28.0351 20.1432 28.7326 20.7387C29.4568 21.3117 30.3914 21.5984 31.5366 21.5991C32.3368 21.6087 33.1311 21.4627 33.8742 21.1694C34.5789 20.8823 35.3257 20.4189 36.1152 19.7793L38.7674 22.3231C37.8173 23.3484 36.6734 24.1803 35.4003 24.7725C34.1253 25.3466 32.6677 25.6338 31.0278 25.6338Z" fill="#6122E8"/>
<path d="M44.5634 7.50023H49.6968L49.1118 9.96421C49.4873 9.59807 49.8819 9.25152 50.2939 8.92584C50.7284 8.58276 51.1929 8.27863 51.6821 8.01735C52.176 7.75498 52.6981 7.54853 53.2387 7.40124C53.8268 7.24504 54.4337 7.16846 55.0426 7.17412C56.9967 7.17412 58.3699 7.74737 59.1622 8.89386C59.9767 10.0406 60.1527 11.6196 59.6904 13.6308L56.705 25.6305H51.5836L54.2138 15.19C54.4825 14.0215 54.4144 13.1455 54.0095 12.5616C53.6092 11.9559 52.9148 11.6531 51.9269 11.6531C50.9877 11.6361 50.0747 11.9592 49.3602 12.5616C48.6647 13.1457 48.1284 14.0152 47.8606 15.1835L45.3207 25.6314H40.1863L44.5634 7.50023Z" fill="#6122E8"/>
<path d="M57.576 31.9998C57.174 32.0037 56.772 31.982 56.3728 31.9343C56.0619 31.9117 55.4675 31.7899 55.1179 31.7244L56.0462 27.8061C56.4309 27.9016 56.7215 27.9877 57.0361 27.9877C57.5382 28.0003 58.0286 27.8372 58.4206 27.5272C58.8033 27.2202 59.0517 26.6935 59.1659 25.9473L63.1547 9.36338C63.2139 9.12951 63.3551 8.92371 63.5531 8.78274L65.4923 7.36931C65.8547 7.10476 66.3257 7.10476 66.6081 7.36931L68.0609 8.72835C68.1564 8.82103 68.2252 8.93741 68.26 9.06512C68.2948 9.19304 68.2941 9.32748 68.2587 9.45518L64.2338 26.3406C63.9377 28.2934 63.2267 29.719 62.1013 30.6179C60.9944 31.5392 59.4859 31.9998 57.576 31.9998Z" fill="#6122E8"/>
<path d="M70.8301 9.37747C70.8899 9.14404 71.0305 8.93867 71.2276 8.79704L73.1742 7.37339C73.5423 7.1008 74.0159 7.1008 74.2974 7.37339L75.7409 8.74614C75.8333 8.83816 75.8995 8.95259 75.933 9.0779C75.9665 9.20343 75.9658 9.33505 75.9312 9.46014L72.0778 25.6316H66.9949L70.8301 9.37747Z" fill="#6122E8"/>
</svg>
