<svg width="78" height="32" viewBox="0 0 78 32" fill="none" xmlns="http://www.w3.org/2000/svg">
<path d="M77.0299 4.43386C78.0087 3.13573 77.8322 1.3695 76.6344 0.489159C75.4365 -0.391183 73.6739 -0.0504983 72.6952 1.24776C71.7162 2.54602 71.8929 4.31312 73.0898 5.19246C74.2866 6.07202 76.0511 5.73308 77.0299 4.43386Z" fill="#ED008C"/>
<path d="M69.2496 4.43387C70.2284 3.13553 70.052 1.36945 68.855 0.489105C67.6582 -0.391237 65.8946 -0.0505314 64.9158 1.24862C63.937 2.54779 64.1135 4.31291 65.3104 5.19247C66.5072 6.07181 68.2746 5.73309 69.2496 4.43387Z" fill="#ED008C"/>
<path d="M21.9551 8.56409C21.176 4.22046 17.0315 0.215844 9.95801 0.450234C6.6223 0.562882 3.971 2.09736 2.18628 4.27224C0.0961544 6.81606 -0.231347 10.0467 0.123762 12.0355C0.591084 14.652 2.22124 16.5717 2.39787 16.7462L2.54874 16.8996C2.54874 16.8996 3.35187 13.5101 4.14026 10.2495C4.61772 8.27692 5.61219 4.16237 10.521 4.16237C14.534 4.02793 16.6847 6.59808 17.083 8.84038C17.4429 10.8536 16.5459 13.4346 14.9671 14.6275C13.6895 15.5886 12.1605 15.8085 10.7353 15.2399L11.6701 11.3542C12.0058 9.43451 13.0897 9.01202 13.2983 8.92109C13.4025 8.87366 13.5098 8.83363 13.6194 8.80122L13.4732 8.52862C13.2191 8.05697 12.8519 7.65385 12.4037 7.35472C11.9556 7.05559 11.4398 6.86936 10.902 6.81258C10.3838 6.75145 9.85837 6.8165 9.37128 7.00142C8.88418 7.18655 8.45017 7.48634 8.10709 7.87445C7.47597 8.6126 7.02999 9.48716 6.80548 10.4274L3.13476 25.6331L8.18171 25.6277L9.77875 19.3644C13.1641 20.4219 16.3103 19.9242 18.669 17.9381C21.1567 15.8357 22.5309 11.7993 21.9551 8.56409Z" fill="white"/>
<path d="M35.4935 14.983C35.4591 13.8582 35.1525 12.9539 34.5734 12.2701C34.0032 11.5644 33.1783 11.2117 32.0988 11.2117C31.0195 11.2117 30.1062 11.5529 29.3592 12.2355C28.6325 12.9189 28.1056 13.8339 27.7787 14.981L35.4935 14.983ZM31.028 25.6343C29.7629 25.6491 28.5066 25.4246 27.327 24.9729C26.266 24.5563 25.3121 23.9122 24.5341 23.0868C23.784 22.2555 23.2249 21.2741 22.8946 20.2094C22.5457 19.0847 22.446 17.8386 22.5957 16.471L22.6031 16.4047C22.8531 13.9257 23.9887 11.6155 25.8063 9.88794C26.6813 9.05211 27.7023 8.37988 28.8201 7.90388C29.9964 7.41439 31.2614 7.16725 32.5376 7.17704C34.0426 7.17704 35.3166 7.44158 36.3591 7.9711C37.3624 8.46581 38.2211 9.2057 38.8531 10.1205C39.5121 11.0364 39.9504 12.0889 40.1347 13.1978C40.3703 14.3847 40.419 15.6008 40.2791 16.8026C40.2559 17.0138 40.2217 17.2235 40.1769 17.4313C40.153 17.6523 40.1166 17.884 40.0675 18.1264H27.5028C27.6255 19.2729 28.0354 20.1437 28.7328 20.7392C29.4571 21.3122 30.3917 21.5989 31.5368 21.5996C32.337 21.6092 33.1313 21.4632 33.8744 21.1699C34.5791 20.8828 35.3259 20.4194 36.1154 19.7798L38.7676 22.3236C37.8176 23.3489 36.6737 24.1808 35.4006 24.773C34.1255 25.3471 32.6679 25.6343 31.028 25.6343Z" fill="white"/>
<path d="M44.5637 7.50023H49.697L49.112 9.96421C49.4875 9.59807 49.8821 9.25152 50.2942 8.92584C50.7286 8.58276 51.1931 8.27863 51.6824 8.01735C52.1762 7.75498 52.6983 7.54853 53.2389 7.40124C53.827 7.24504 54.434 7.16846 55.0429 7.17412C56.9969 7.17412 58.3701 7.74737 59.1624 8.89386C59.9769 10.0406 60.1529 11.6196 59.6906 13.6308L56.7052 25.6305H51.5838L54.214 15.19C54.4827 14.0215 54.4146 13.1455 54.0097 12.5616C53.6094 11.9559 52.915 11.6531 51.9271 11.6531C50.9879 11.6361 50.0749 11.9592 49.3604 12.5616C48.6649 13.1457 48.1287 14.0152 47.8609 15.1835L45.321 25.6314H40.1865L44.5637 7.50023Z" fill="white"/>
<path d="M57.5753 31.9998C57.1733 32.0037 56.7712 31.9819 56.372 31.9343C56.0611 31.9117 55.4668 31.7899 55.1172 31.7244L56.0455 27.8061C56.4301 27.9016 56.7208 27.9877 57.0353 27.9877C57.5374 28.0003 58.0278 27.8372 58.4198 27.5272C58.8025 27.2202 59.0509 26.6935 59.1652 25.9473L63.154 9.36338C63.2131 9.12951 63.3543 8.92371 63.5523 8.78274L65.4916 7.36931C65.854 7.10476 66.325 7.10476 66.6074 7.36931L68.0602 8.72835C68.1557 8.82103 68.2244 8.93741 68.2592 9.06512C68.294 9.19304 68.2934 9.32748 68.2579 9.45518L64.233 26.3406C63.9369 28.2934 63.226 29.719 62.1006 30.6179C60.9937 31.5392 59.4852 31.9998 57.5753 31.9998Z" fill="white"/>
<path d="M70.8294 9.37747C70.8892 9.14404 71.0297 8.93867 71.2268 8.79704L73.1735 7.37339C73.5416 7.1008 74.0152 7.1008 74.2967 7.37339L75.7401 8.74614C75.8326 8.83816 75.8987 8.95259 75.9322 9.0779C75.9657 9.20343 75.9651 9.33505 75.9305 9.46014L72.077 25.6316H66.9941L70.8294 9.37747Z" fill="white"/>
</svg>
